<?xml version="1.0" encoding="utf-8"?>
<!-- Svg Vector Icons : http://www.onlinewebfonts.com/icon -->
<!DOCTYPE svg PUBLIC "-//W3C//DTD SVG 1.1//EN" "http://www.w3.org/Graphics/SVG/1.1/DTD/svg11.dtd">
<svg version="1.1" xmlns="http://www.w3.org/2000/svg" xmlns:xlink="http://www.w3.org/1999/xlink" x="0px" y="0px" viewBox="0 0 256 256" enable-background="new 0 0 256 256" xml:space="preserve">
<metadata> Svg Vector Icons : http://www.onlinewebfonts.com/icon </metadata>
<g><g><g><path fill="#000000" d="M206.2,11.1c-8.4,1.8-15,5.8-23.9,14.6l-4.2,4.1l-77.1,0.1l-77.1,0.1l-3,1.4c-3.8,1.8-6.3,4-8.2,7.2C9.8,43.7,10,37,10,138c0,90.4,0,91.5,0.9,94.5c1.6,5.1,5.4,9.3,10.6,11.8l2.5,1.2l93,0.1c83.8,0.1,93.2,0,95.5-0.6c6.8-1.9,12-7.8,13.4-15c0.3-1.6,0.5-28.7,0.5-76.7V78.9l4.8-4.9c5.4-5.6,8.3-9.5,10.9-14.6c3-6,4-10.1,3.9-17c0-5.3-0.1-6.4-1.3-9.7C240.8,21.4,232.3,13.6,221,11C217.1,10.2,210.3,10.2,206.2,11.1z M218.2,22c11.7,2.5,18.7,13.3,16.4,25.1c-0.4,2-1.4,5-2.2,6.7c-1.8,3.6-6,9.4-9.2,12.6l-2.4,2.3l-16.5-16.5l-16.5-16.5l3.9-3.7c4.8-4.6,8-6.7,12.3-8.4C209.7,21.4,213.4,21.1,218.2,22z M123.5,84.3c-24.2,24.2-46.2,45.9-48.9,48.3c-7,6.3-10.8,10.7-12.9,15c-2.3,4.7-3,7.3-4.6,17.8c-0.8,4.7-2.6,14.3-4.2,21.4c-1.5,7.1-2.8,13.6-2.8,14.4c0,3.4,2.3,5.6,5.7,5.4c2-0.1,53.3-11.4,53.8-11.9c0.1-0.1,24-24,53-53L215.4,89v69.5c0,66.2,0,69.5-0.9,71.3c-1.2,2.6-3.7,4.7-6.1,5.1c-1.1,0.1-42.5,0.2-92,0.1l-90-0.1l-1.9-1.2c-1-0.6-2.2-2-2.7-3c-0.8-1.7-0.9-4.3-1-91.7c-0.1-63.9,0-90.6,0.4-92c0.7-2.8,2.1-4.6,4.3-5.6c1.8-0.8,4.6-0.9,72-0.9h70.1L123.5,84.3z M196.2,60.2l16.2,16.2L188.8,100c-66.2,66.5-77.6,77.9-78,77.9c-0.7,0-32.1-31.5-32.1-32.3C78.8,144.9,179.2,44,179.8,44C180,44,187.3,51.3,196.2,60.2z M86.8,170c8.4,8.4,15.1,15.3,15,15.4c-0.1,0.1-4.7,1.2-10.2,2.3c-11.1,2.4-26.9,5.8-28.5,6.1c-1,0.2-1,0.2-0.4-2.4c0.4-1.4,2.4-10.2,4.4-19.6c2.1-9.3,3.9-16.9,4.1-16.9C71.5,154.8,78.4,161.6,86.8,170z"/></g></g></g>
</svg>